<svg xmlns="http://www.w3.org/2000/svg" viewBox="0 0 255.44624 23.78347"><defs><style>.cls-1{fill:#1d1d1b;}</style></defs><g id="Layer_2" data-name="Layer 2"><g id="Layer_1-2" data-name="Layer 1"><path class="cls-1" d="M22.88232.03542a8.97632,8.97632,0,0,1,0,17.95264H9.25879v5.79541H0V.03542ZM20.56738,11.02615A2.02045,2.02045,0,0,0,22.58154,9.0115,1.8956,1.8956,0,0,0,21.981,7.58035a1.88456,1.88456,0,0,0-1.41358-.60059H9.25879v4.04639Z"/><path class="cls-1" d="M55.75488.01785A8.96587,8.96587,0,0,1,64.731,8.99392,8.658,8.658,0,0,1,63.2998,13.8533a8.908,8.908,0,0,1-3.74609,3.251L64.731,23.76589H54.87109L50.40088,17.97H42.13135v5.7959H32.87256V.01785ZM42.13135,6.96218v4.04639h11.291A2.02133,2.02133,0,0,0,55.4541,8.99392a2.02063,2.02063,0,0,0-2.03174-2.03174Z"/><path class="cls-1" d="M133.31484.03517a8.97632,8.97632,0,0,1,0,17.95264H119.69131v5.79541h-9.25879V.03517ZM130.9999,11.02589a2.02045,2.02045,0,0,0,2.01416-2.01465,1.8956,1.8956,0,0,0-.60058-1.43115,1.88457,1.88457,0,0,0-1.41358-.60058H119.69131v4.04638Z"/><path class="cls-1" d="M175.43271,0H187.024l9.25879,11.874L205.55917,0H217.1329V23.74806h-9.25879V11.07863l-9.27636,12.66943h-4.62989L184.6915,11.07863V23.74806h-9.25879Z"/><path class="cls-1" d="M228.28122,0V7.56962h-9.25831V0Z"/><path class="cls-1" d="M228.28122,9.053V23.78347h-9.25831V9.053Z"/><path class="cls-1" d="M235.17866,23.78322V7.56251h-5.00743V.03517h25.275V7.56251H244.43745V23.78322Z"/><path d="M97.56831.053H77.54841A11.85642,11.85642,0,0,0,65.692,11.90942v.00006A11.85641,11.85641,0,0,0,77.54841,23.76587h20.0199a11.85641,11.85641,0,0,0,11.85645-11.85639v-.00006A11.85642,11.85642,0,0,0,97.56831.053Zm0,14.71289H77.54841a2.85645,2.85645,0,0,1,0-5.71289h20.0199a2.85645,2.85645,0,1,1,0,5.71289Z"/><polygon points="159.505 0 153.516 0 148.341 0 144.258 0 144.258 23.783 153.516 23.783 153.516 17.911 160.409 17.911 164.365 23.783 175.529 23.783 159.505 0"/></g></g></svg>